<svg width="25" height="24" viewBox="0 0 25 24" fill="none" xmlns="http://www.w3.org/2000/svg">
<path d="M22.0306 18.424C21.6828 19.2275 21.2711 19.9672 20.7941 20.6472C20.1439 21.5743 19.6115 22.216 19.2012 22.5724C18.5651 23.1573 17.8837 23.4568 17.1539 23.4739C16.6301 23.4739 15.9983 23.3248 15.2629 23.0224C14.5251 22.7214 13.847 22.5724 13.227 22.5724C12.5768 22.5724 11.8794 22.7214 11.1335 23.0224C10.3865 23.3248 9.78465 23.4824 9.32452 23.498C8.62475 23.5278 7.92725 23.2197 7.23102 22.5724C6.78665 22.1848 6.23084 21.5204 5.56499 20.5791C4.85059 19.5739 4.26326 18.4084 3.80313 17.0795C3.31035 15.6442 3.06332 14.2543 3.06332 12.9087C3.06332 11.3673 3.39638 10.0379 4.06351 8.92385C4.5878 8.029 5.28531 7.32312 6.15829 6.80493C7.03127 6.28674 7.97452 6.02267 8.99033 6.00578C9.54614 6.00578 10.275 6.1777 11.1808 6.51559C12.084 6.85462 12.664 7.02655 12.9182 7.02655C13.1083 7.02655 13.7526 6.82552 14.8448 6.42473C15.8776 6.05305 16.7493 5.89916 17.4634 5.95978C19.3985 6.11595 20.8523 6.87876 21.8191 8.25303C20.0885 9.30163 19.2324 10.7703 19.2494 12.6544C19.265 14.122 19.7974 15.3432 20.8438 16.3129C21.3179 16.7629 21.8475 17.1107 22.4367 17.3578C22.3089 17.7283 22.174 18.0832 22.0306 18.424ZM17.5926 0.960131C17.5926 2.11039 17.1724 3.18439 16.3348 4.17847C15.3239 5.36023 14.1013 6.04311 12.7754 5.93536C12.7585 5.79736 12.7487 5.65213 12.7487 5.49951C12.7487 4.39526 13.2294 3.21349 14.0831 2.24724C14.5093 1.75801 15.0514 1.35122 15.7087 1.02671C16.3646 0.707053 16.985 0.530273 17.5685 0.5C17.5855 0.653772 17.5926 0.807554 17.5926 0.960116V0.960131Z" fill="black"/>
</svg>
