<svg width="108" height="16" viewBox="0 0 108 16" fill="none" xmlns="http://www.w3.org/2000/svg">
<g id="Bricovoisins">
<path d="M1.95 14.8794C1.08015 14.8794 0.375 14.1743 0.375 13.3044V3.11213C0.375 2.24228 1.08015 1.53713 1.95 1.53713H6.809C8.24718 1.53713 9.35736 1.85255 10.1395 2.48339C10.9343 3.10162 11.3317 3.93433 11.3317 4.98152C11.3317 5.67545 11.1551 6.28106 10.8019 6.79835C10.4612 7.31564 9.98184 7.70045 9.36367 7.95278C10.108 8.17989 10.682 8.5647 11.0857 9.10722C11.4894 9.63713 11.6913 10.2995 11.6913 11.0944C11.6913 12.2677 11.2686 13.1951 10.4234 13.8764C9.59075 14.5451 8.44904 14.8794 6.99823 14.8794H1.95ZM3.70554 6.3112C3.70554 6.60114 3.94059 6.8362 4.23054 6.8362H6.18452C6.8153 6.8362 7.27578 6.72264 7.56594 6.49554C7.86871 6.26844 8.0201 5.92148 8.0201 5.45465C8.0201 4.98783 7.86871 4.64718 7.56594 4.43269C7.27578 4.20559 6.8153 4.09204 6.18452 4.09204H4.23054C3.94059 4.09204 3.70554 4.32709 3.70554 4.61704V6.3112ZM3.70554 11.7995C3.70554 12.0895 3.94059 12.3245 4.23054 12.3245H6.52514C7.16854 12.3245 7.63532 12.2047 7.92548 11.9649C8.22826 11.7126 8.37965 11.3404 8.37965 10.8483C8.37965 10.3563 8.22826 9.9904 7.92548 9.75068C7.63532 9.51096 7.16854 9.3911 6.52514 9.3911H4.23054C3.94059 9.3911 3.70554 9.62615 3.70554 9.9161V11.7995Z" fill="black"/>
<path d="M15.01 14.8794C14.1402 14.8794 13.435 14.1743 13.435 13.3044V7.1432C13.435 6.27336 14.1402 5.56821 15.01 5.56821H15.138C16.0055 5.56821 16.7088 6.27147 16.7088 7.139C17.1377 6.06657 18.065 5.47989 19.4906 5.37895C20.0004 5.33733 20.4457 5.72111 20.4797 6.23153L20.5144 6.75164C20.5659 7.52531 19.9916 8.19915 19.2195 8.27079L18.7715 8.31236C18.1028 8.37545 17.6171 8.5647 17.3144 8.88012C17.0116 9.18293 16.8602 9.63713 16.8602 10.2427V13.3044C16.8602 14.1743 16.155 14.8794 15.2852 14.8794H15.01Z" fill="black"/>
<path d="M23.069 3.95956C22.2276 3.95956 21.5455 3.27747 21.5455 2.43608C21.5455 1.59468 22.2276 0.912598 23.069 0.912598H23.5608C24.4021 0.912598 25.0842 1.59468 25.0842 2.43608C25.0842 3.27747 24.4021 3.95956 23.5608 3.95956H23.069ZM23.2152 14.8794C22.3453 14.8794 21.6402 14.1743 21.6402 13.3044V7.1432C21.6402 6.27336 22.3453 5.56821 23.2152 5.56821H23.4335C24.3034 5.56821 25.0085 6.27336 25.0085 7.14321V13.3044C25.0085 14.1743 24.3034 14.8794 23.4335 14.8794H23.2152Z" fill="black"/>
<path d="M31.7122 15.0876C30.6651 15.0876 29.7505 14.892 28.9683 14.5009C28.1987 14.1098 27.5995 13.5483 27.1706 12.8166C26.7416 12.0848 26.5272 11.2142 26.5272 10.2049C26.5272 9.19554 26.7416 8.33129 27.1706 7.61213C27.5995 6.88035 28.1987 6.32521 28.9683 5.94671C29.7505 5.55559 30.6651 5.36003 31.7122 5.36003C32.3304 5.36003 32.9422 5.44835 33.5478 5.62498C33.8222 5.69779 34.0742 5.78428 34.3039 5.88444C34.782 6.09296 34.9332 6.65861 34.7457 7.14536L34.5882 7.55433C34.3813 8.09136 33.6981 8.28088 33.1504 8.10419C32.7719 7.9654 32.4124 7.89601 32.0717 7.89601C31.4031 7.89601 30.8859 8.09788 30.52 8.50162C30.1542 8.90535 29.9712 9.47311 29.9712 10.2049C29.9712 10.9493 30.1542 11.5297 30.52 11.946C30.8859 12.3497 31.4031 12.5516 32.0717 12.5516C32.4124 12.5516 32.7719 12.4885 33.1504 12.3624C33.6965 12.1686 34.3828 12.36 34.591 12.9007L34.7457 13.3023C34.9332 13.789 34.782 14.3537 34.3064 14.5679C34.0761 14.6716 33.8232 14.7629 33.5478 14.8416C32.9296 15.0056 32.3178 15.0876 31.7122 15.0876Z" fill="black"/>
<path d="M40.6556 15.0876C39.6211 15.0876 38.7191 14.892 37.9496 14.5009C37.18 14.1098 36.5808 13.5483 36.1518 12.8166C35.7229 12.0848 35.5084 11.2205 35.5084 10.2238C35.5084 9.21447 35.7229 8.35021 36.1518 7.63106C36.5808 6.89928 37.18 6.33783 37.9496 5.94671C38.7191 5.55559 39.6211 5.36003 40.6556 5.36003C41.6901 5.36003 42.5921 5.55559 43.3617 5.94671C44.1313 6.33783 44.7242 6.89928 45.1405 7.63106C45.5694 8.35021 45.7839 9.21447 45.7839 10.2238C45.7839 11.2205 45.5694 12.0848 45.1405 12.8166C44.7242 13.5483 44.1313 14.1098 43.3617 14.5009C42.5921 14.892 41.6901 15.0876 40.6556 15.0876ZM40.6556 12.6084C41.1603 12.6084 41.5766 12.4191 41.9046 12.0406C42.2326 11.6621 42.3966 11.0565 42.3966 10.2238C42.3966 9.37849 42.2326 8.77288 41.9046 8.40699C41.5766 8.02849 41.1603 7.83923 40.6556 7.83923C40.1384 7.83923 39.7158 8.02849 39.3878 8.40699C39.0597 8.77288 38.8957 9.37849 38.8957 10.2238C38.8957 11.0565 39.0597 11.6621 39.3878 12.0406C39.7158 12.4191 40.1384 12.6084 40.6556 12.6084Z" fill="black"/>
<path d="M50.8597 14.8794C50.2347 14.8794 49.6688 14.5098 49.4175 13.9375L46.7129 7.77629C46.256 6.7355 47.0184 5.56821 48.155 5.56821H48.1994C48.8516 5.56821 49.4364 5.97025 49.67 6.57927L51.3071 10.8483L53.0675 6.50148C53.2959 5.93737 53.8437 5.56821 54.4523 5.56821C55.535 5.56821 56.2582 6.68381 55.8163 7.67219L53.0106 13.9473C52.7571 14.5143 52.194 14.8794 51.5728 14.8794H50.8597Z" fill="black"/>
<path d="M61.8152 15.0876C60.7807 15.0876 59.8787 14.892 59.1092 14.5009C58.3396 14.1098 57.7404 13.5483 57.3114 12.8166C56.8825 12.0848 56.668 11.2205 56.668 10.2238C56.668 9.21447 56.8825 8.35021 57.3114 7.63106C57.7404 6.89928 58.3396 6.33783 59.1092 5.94671C59.8787 5.55559 60.7807 5.36003 61.8152 5.36003C62.8497 5.36003 63.7517 5.55559 64.5213 5.94671C65.2908 6.33783 65.8838 6.89928 66.3001 7.63106C66.729 8.35021 66.9435 9.21447 66.9435 10.2238C66.9435 11.2205 66.729 12.0848 66.3001 12.8166C65.8838 13.5483 65.2908 14.1098 64.5213 14.5009C63.7517 14.892 62.8497 15.0876 61.8152 15.0876ZM61.8152 12.6084C62.3199 12.6084 62.7362 12.4191 63.0642 12.0406C63.3922 11.6621 63.5562 11.0565 63.5562 10.2238C63.5562 9.37849 63.3922 8.77288 63.0642 8.40699C62.7362 8.02849 62.3199 7.83923 61.8152 7.83923C61.298 7.83923 60.8754 8.02849 60.5474 8.40699C60.2193 8.77288 60.0553 9.37849 60.0553 10.2238C60.0553 11.0565 60.2193 11.6621 60.5474 12.0406C60.8754 12.4191 61.298 12.6084 61.8152 12.6084Z" fill="black"/>
<path d="M69.9158 3.95956C69.0744 3.95956 68.3923 3.27747 68.3923 2.43608C68.3923 1.59468 69.0744 0.912598 69.9158 0.912598H70.4075C71.2489 0.912598 71.931 1.59468 71.931 2.43608C71.931 3.27747 71.2489 3.95956 70.4075 3.95956H69.9158ZM70.062 14.8794C69.1921 14.8794 68.487 14.1743 68.487 13.3044V7.1432C68.487 6.27336 69.1921 5.56821 70.062 5.56821H70.2803C71.1502 5.56821 71.8553 6.27336 71.8553 7.14321V13.3044C71.8553 14.1743 71.1502 14.8794 70.2803 14.8794H70.062Z" fill="black"/>
<path d="M77.5182 15.0876C76.6603 15.0876 75.8655 14.9993 75.1338 14.8226C74.7717 14.7337 74.4367 14.6271 74.129 14.503C73.6246 14.2995 73.4284 13.7196 73.611 13.2073C73.8527 12.5293 74.6532 12.2321 75.3364 12.4582C75.4551 12.4974 75.5768 12.5349 75.7015 12.5705C76.3197 12.7346 76.9316 12.8166 77.5371 12.8166C78.0039 12.8166 78.3382 12.7535 78.5401 12.6273C78.7419 12.4885 78.8428 12.3119 78.8428 12.0974C78.8428 11.9082 78.7735 11.7694 78.6347 11.6811C78.5085 11.5801 78.3256 11.5044 78.0859 11.454L75.9854 11.1133C75.2032 10.9871 74.5977 10.7033 74.1687 10.2617C73.7398 9.82007 73.5253 9.24601 73.5253 8.53947C73.5253 7.88339 73.7083 7.32194 74.0741 6.85512C74.44 6.37568 74.9509 6.00979 75.6069 5.75746C76.2629 5.4925 77.0136 5.36003 77.8588 5.36003C78.5275 5.36003 79.1898 5.44204 79.8458 5.60606C80.1908 5.68568 80.5132 5.79323 80.8128 5.92869C81.2807 6.14022 81.4376 6.69761 81.2513 7.17612C80.9878 7.85272 80.1439 8.11972 79.4514 7.90139C79.4254 7.89318 79.3992 7.88508 79.3727 7.87708C78.8302 7.70045 78.3445 7.61213 77.9156 7.61213C77.3984 7.61213 77.0325 7.68783 76.818 7.83923C76.6036 7.97802 76.4963 8.14835 76.4963 8.35021C76.4963 8.69087 76.7297 8.89905 77.1965 8.97475L79.297 9.33433C80.1044 9.46049 80.7226 9.73806 81.1515 10.167C81.5931 10.5834 81.8138 11.1511 81.8138 11.8703C81.8138 12.8923 81.4228 13.6871 80.6406 14.2549C79.8584 14.81 78.8176 15.0876 77.5182 15.0876Z" fill="black"/>
<path d="M84.6259 3.95956C83.7845 3.95956 83.1024 3.27747 83.1024 2.43608C83.1024 1.59468 83.7845 0.912598 84.6259 0.912598H85.1176C85.959 0.912598 86.6411 1.59468 86.6411 2.43608C86.6411 3.27747 85.959 3.95956 85.1176 3.95956H84.6259ZM84.772 14.8794C83.9022 14.8794 83.197 14.1743 83.197 13.3044V7.1432C83.197 6.27336 83.9022 5.56821 84.772 5.56821H84.9904C85.8603 5.56821 86.5654 6.27336 86.5654 7.14321V13.3044C86.5654 14.1743 85.8603 14.8794 84.9904 14.8794H84.772Z" fill="black"/>
<path d="M90.0943 14.8794C89.2244 14.8794 88.5193 14.1743 88.5193 13.3044V7.1432C88.5193 6.27336 89.2244 5.56821 90.0943 5.56821H90.5251C91.2253 5.56821 91.793 6.1359 91.793 6.8362C92.1211 6.35676 92.5437 5.99087 93.0609 5.73853C93.5782 5.4862 94.1585 5.36003 94.8019 5.36003C95.9121 5.36003 96.7321 5.68807 97.2619 6.34414C97.8044 7.00021 98.0757 8.00956 98.0757 9.37218V13.3044C98.0757 14.1743 97.3705 14.8794 96.5006 14.8794H96.2823C95.4124 14.8794 94.7073 14.1743 94.7073 13.3044V9.50465C94.7073 8.9369 94.6063 8.53316 94.4045 8.29344C94.2153 8.05372 93.9314 7.93386 93.5529 7.93386C93.0483 7.93386 92.6446 8.09788 92.3418 8.42592C92.039 8.74134 91.8877 9.17031 91.8877 9.71283V13.3044C91.8877 14.1743 91.1825 14.8794 90.3127 14.8794H90.0943Z" fill="black"/>
<path d="M103.704 15.0876C102.846 15.0876 102.052 14.9993 101.32 14.8226C100.958 14.7337 100.623 14.6271 100.315 14.503C99.8108 14.2995 99.6145 13.7196 99.7972 13.2073C100.039 12.5293 100.839 12.2321 101.523 12.4582C101.641 12.4974 101.763 12.5349 101.888 12.5705C102.506 12.7346 103.118 12.8166 103.723 12.8166C104.19 12.8166 104.524 12.7535 104.726 12.6273C104.928 12.4885 105.029 12.3119 105.029 12.0974C105.029 11.9082 104.96 11.7694 104.821 11.6811C104.695 11.5801 104.512 11.5044 104.272 11.454L102.172 11.1133C101.389 10.9871 100.784 10.7033 100.355 10.2617C99.926 9.82007 99.7115 9.24601 99.7115 8.53947C99.7115 7.88339 99.8944 7.32194 100.26 6.85512C100.626 6.37568 101.137 6.00979 101.793 5.75746C102.449 5.4925 103.2 5.36003 104.045 5.36003C104.714 5.36003 105.376 5.44204 106.032 5.60606C106.377 5.68568 106.699 5.79323 106.999 5.92869C107.467 6.14022 107.624 6.69761 107.437 7.17612C107.174 7.85272 106.33 8.11972 105.638 7.90139C105.612 7.89318 105.585 7.88508 105.559 7.87708C105.016 7.70045 104.531 7.61213 104.102 7.61213C103.585 7.61213 103.219 7.68783 103.004 7.83923C102.79 7.97802 102.682 8.14835 102.682 8.35021C102.682 8.69087 102.916 8.89905 103.383 8.97475L105.483 9.33433C106.291 9.46049 106.909 9.73806 107.338 10.167C107.779 10.5834 108 11.1511 108 11.8703C108 12.8923 107.609 13.6871 106.827 14.2549C106.045 14.81 105.004 15.0876 103.704 15.0876Z" fill="black"/>
</g>
</svg>
