<svg width="25" height="25" viewBox="0 0 25 25" fill="none" xmlns="http://www.w3.org/2000/svg">
<path d="M22.7498 12.0667C22.7498 17.3499 18.272 21.6334 12.7498 21.6334C12.1005 21.6343 11.453 21.5742 10.8152 21.4545C10.3561 21.3682 10.1266 21.3251 9.96632 21.3496C9.80606 21.3741 9.57897 21.4948 9.12478 21.7364C7.83993 22.4197 6.34174 22.661 4.9009 22.393C5.44853 21.7194 5.82254 20.9112 5.98757 20.0448C6.08757 19.5148 5.83979 19 5.46868 18.6231C3.78312 16.9115 2.74979 14.6051 2.74979 12.0667C2.74979 6.78357 7.22757 2.5 12.7498 2.5C18.272 2.5 22.7498 6.78357 22.7498 12.0667Z" stroke="black" stroke-width="2" stroke-linejoin="round"/>
<path d="M12.7453 12.5H12.7543M16.7408 12.5H16.7498M8.74979 12.5H8.75876" stroke="black" stroke-width="2" stroke-linecap="round" stroke-linejoin="round"/>
</svg>
