<svg width="26" height="26" viewBox="0 0 26 26" fill="none" xmlns="http://www.w3.org/2000/svg">
<g id="filter">
<path id="Vector" d="M7.41589 22.3286V19.1846" stroke="black" stroke-width="1.572" stroke-linecap="round" stroke-linejoin="round"/>
<path id="Vector_2" d="M17.8961 22.329V16.041" stroke="black" stroke-width="1.572" stroke-linecap="round" stroke-linejoin="round"/>
<path id="Vector_3" d="M17.8961 6.60884V3.46484" stroke="black" stroke-width="1.572" stroke-linecap="round" stroke-linejoin="round"/>
<path id="Vector_4" d="M7.41589 9.75284V3.46484" stroke="black" stroke-width="1.572" stroke-linecap="round" stroke-linejoin="round"/>
<path id="Vector_5" d="M7.41585 19.185C6.43924 19.185 5.95094 19.185 5.56574 19.0255C5.05217 18.8127 4.64413 18.4046 4.4314 17.8911C4.27185 17.5059 4.27185 17.0176 4.27185 16.041C4.27185 15.0643 4.27185 14.5761 4.4314 14.1908C4.64413 13.6773 5.05217 13.2692 5.56574 13.0565C5.95094 12.897 6.43924 12.897 7.41585 12.897C8.39246 12.897 8.88077 12.897 9.26596 13.0565C9.77953 13.2692 10.1876 13.6773 10.4003 14.1908C10.5599 14.5761 10.5599 15.0643 10.5599 16.041C10.5599 17.0176 10.5599 17.5059 10.4003 17.8911C10.1876 18.4046 9.77953 18.8127 9.26596 19.0255C8.88077 19.185 8.39246 19.185 7.41585 19.185Z" stroke="black" stroke-width="1.572"/>
<path id="Vector_6" d="M17.8962 12.8969C16.9196 12.8969 16.4313 12.8969 16.0461 12.7374C15.5325 12.5246 15.1244 12.1165 14.9117 11.603C14.7522 11.2178 14.7522 10.7295 14.7522 9.75289C14.7522 8.77628 14.7522 8.28797 14.9117 7.90278C15.1244 7.38921 15.5325 6.98117 16.0461 6.76843C16.4313 6.60889 16.9196 6.60889 17.8962 6.60889C18.8728 6.60889 19.3611 6.60889 19.7463 6.76843C20.2599 6.98117 20.6679 7.38921 20.8807 7.90278C21.0402 8.28797 21.0402 8.77628 21.0402 9.75289C21.0402 10.7295 21.0402 11.2178 20.8807 11.603C20.6679 12.1165 20.2599 12.5246 19.7463 12.7374C19.3611 12.8969 18.8728 12.8969 17.8962 12.8969Z" stroke="black" stroke-width="1.572"/>
</g>
</svg>
