<svg width="24" height="24" viewBox="0 0 24 24" fill="none" xmlns="http://www.w3.org/2000/svg">
<g id="forklift-warehouse-vehicle-svgrepo-com 1">
<path id="Vector" d="M3.49986 21.4997C4.54368 21.4997 5.38986 20.6535 5.38986 19.6097C5.38986 18.5659 4.54368 17.7197 3.49986 17.7197C2.45605 17.7197 1.60986 18.5659 1.60986 19.6097C1.60986 20.6535 2.45605 21.4997 3.49986 21.4997Z" stroke="black" stroke-width="1.89" stroke-miterlimit="10"/>
<path id="Vector_2" d="M12.9701 21.4997C14.0139 21.4997 14.8601 20.6535 14.8601 19.6097C14.8601 18.5659 14.0139 17.7197 12.9701 17.7197C11.9263 17.7197 11.0801 18.5659 11.0801 19.6097C11.0801 20.6535 11.9263 21.4997 12.9701 21.4997Z" stroke="black" stroke-width="1.89" stroke-miterlimit="10"/>
<path id="Vector_3" d="M14.8699 11.0801V19.6101C14.8888 19.3497 14.8538 19.0882 14.7672 18.8419C14.6805 18.5955 14.544 18.3697 14.3662 18.1785C14.1884 17.9873 13.9731 17.8348 13.7337 17.7305C13.4943 17.6262 13.236 17.5724 12.9749 17.5724C12.7137 17.5724 12.4554 17.6262 12.216 17.7305C11.9767 17.8348 11.7613 17.9873 11.5835 18.1785C11.4057 18.3697 11.2692 18.5955 11.1825 18.8419C11.0959 19.0882 11.0609 19.3497 11.0799 19.6101H5.38986C5.38986 19.1089 5.19074 18.6282 4.83629 18.2737C4.48185 17.9193 4.00112 17.7201 3.49986 17.7201C2.9986 17.7201 2.51788 17.9193 2.16343 18.2737C1.80899 18.6282 1.60986 19.1089 1.60986 19.6101V13.9201H10.1299C10.1312 13.545 10.2065 13.1739 10.3516 12.8279C10.4966 12.482 10.7086 12.1681 10.9752 11.9043C11.2418 11.6404 11.5579 11.4318 11.9054 11.2904C12.2528 11.149 12.6248 11.0775 12.9999 11.0801H14.8699Z" stroke="black" stroke-width="1.89" stroke-miterlimit="10"/>
<path id="Vector_4" d="M14.8699 11.08H12.9999C12.2475 11.0826 11.5266 11.3827 10.9946 11.9147C10.4626 12.4468 10.1625 13.1676 10.1599 13.92H1.60986V3.5H7.28986C9.3002 3.5 11.2282 4.2986 12.6497 5.72013C14.0713 7.14166 14.8699 9.06966 14.8699 11.08Z" stroke="black" stroke-width="1.89" stroke-miterlimit="10"/>
<path id="Vector_5" d="M4.44983 10.1299V13.9199" stroke="black" stroke-width="1.89" stroke-miterlimit="10"/>
<path id="Vector_6" d="M11.4999 11.5002L9.65991 9.66016" stroke="black" stroke-width="1.89" stroke-miterlimit="10"/>
<path id="Vector_7" d="M11.08 8.24023L8.70996 10.6102" stroke="black" stroke-width="1.89" stroke-miterlimit="10"/>
<path id="Vector_8" d="M18.66 13.9199H14.87V19.5999H18.66V13.9199Z" stroke="black" stroke-width="1.89" stroke-miterlimit="10"/>
<path id="Vector_9" d="M18.6599 19.61V13.92V3.5" stroke="black" stroke-width="1.89" stroke-miterlimit="10"/>
<path id="Vector_10" d="M23.3899 19.6099H18.6599" stroke="black" stroke-width="1.89" stroke-miterlimit="10"/>
</g>
</svg>
