<svg width="24" height="24" viewBox="0 0 24 24" fill="none" xmlns="http://www.w3.org/2000/svg">
<g id="plant-garden-svgrepo-com 1" clip-path="url(#clip0_864_26526)">
<g id="Group">
<g id="Group_2">
<g id="Group_3">
<path id="Vector" d="M12.625 12.8618C12.6245 12.8509 12.6247 12.8565 12.625 12.8618C12.9142 12.2413 13.404 11.5348 14.2212 11.4347C14.6928 11.3769 15.1464 11.2141 15.5638 11.0005C16.1256 11.5415 16.8873 11.8356 17.7269 11.8356C17.7692 11.8356 17.8119 11.8349 17.8546 11.8334C18.7108 11.8034 19.5202 11.4677 20.0754 10.9125C21.7824 9.20554 21.3206 5.78305 21.3 5.63821C21.267 5.40425 21.0831 5.22046 20.8492 5.18736C20.7043 5.16688 17.2818 4.70502 15.5749 6.41202C15.0197 6.96721 14.684 7.77665 14.654 8.63287C14.6352 9.1687 14.7356 9.67561 14.9419 10.1234C14.6641 10.2529 14.3773 10.347 14.0923 10.3819C13.4441 10.4612 12.8682 10.7631 12.3971 11.2532C12.3835 11.1961 12.3698 11.1398 12.3562 11.0837C12.2275 10.554 12.106 10.0537 12.106 9.02545C12.106 8.58585 12.1283 8.24296 12.1638 7.95281C12.9624 7.92201 13.723 7.55985 14.3161 6.92352C14.9003 6.29685 15.2353 5.48713 15.2353 4.70197C15.2353 2.28795 12.4887 0.194461 12.3718 0.106524C12.183 -0.0355079 11.923 -0.0355079 11.7342 0.106524C11.6172 0.194461 8.87069 2.28795 8.87069 4.70197C8.87069 5.48718 9.20566 6.29685 9.78987 6.92352C10.1729 7.33448 10.6259 7.63101 11.1138 7.79807C11.0721 8.13004 11.0453 8.52412 11.0453 9.0254C11.0453 10.1467 11.1795 10.7321 11.3134 11.2841C10.837 10.7759 10.2509 10.4628 9.58933 10.3818C9.39162 10.3576 9.1954 10.3061 9.00358 10.2359C9.24682 9.76143 9.3663 9.21403 9.34591 8.63282C9.31591 7.77665 8.98019 6.96721 8.425 6.41202C6.71805 4.70502 3.29556 5.16683 3.15071 5.18736C2.91676 5.22046 2.73296 5.4043 2.69987 5.63821C2.67938 5.78305 2.21757 9.20554 3.92448 10.9125C4.47967 11.4677 5.28915 11.8034 6.14533 11.8334C6.18808 11.8349 6.23059 11.8357 6.27297 11.8357C7.05906 11.8357 7.77682 11.5777 8.32633 11.1009C8.68483 11.2642 9.06621 11.3864 9.46047 11.4347C10.3062 11.5383 10.8044 12.222 11.089 12.8619H6.00644C5.85611 12.8619 5.71281 12.9257 5.61226 13.0374C5.51172 13.1492 5.46325 13.2983 5.479 13.4478L5.73034 15.8341L6.53973 23.5251C6.56819 23.7951 6.79581 24 7.06722 24H16.6142C16.8857 24 17.1133 23.7951 17.1417 23.5251L17.9511 15.8345L18.2024 13.4478C18.2182 13.2983 18.1698 13.1492 18.0692 13.0374C17.9686 12.9257 17.8253 12.8619 17.675 12.8619L12.625 12.8618C12.6255 12.8723 12.6252 12.8671 12.625 12.8618ZM15.8564 8.63282C15.8768 8.05068 16.2522 7.56772 16.6142 7.20566C17.4411 6.37874 18.6273 6.17713 19.6342 6.17713C19.8879 6.17713 20.1119 6.18716 20.2882 6.19907C20.3474 7.07582 20.5351 8.7149 19.5 9.75C19.1379 10.1121 18.3442 10.5757 17.7621 10.5961C17.2621 10.6133 16.8609 10.6613 16.5019 10.4053C17.2832 9.81436 17.8011 9.18567 17.839 9.13907C18.0238 8.91182 17.9894 8.57774 17.7621 8.39296C17.5347 8.20818 17.2007 8.24259 17.0159 8.46988C16.8185 8.71274 16.3915 9.16012 15.8564 9.56282C15.7524 9.29217 15.8452 8.95284 15.8564 8.63282ZM8.06571 9.73861C7.25622 9.1844 6.67408 8.48043 6.66508 8.46932C6.4802 8.24249 6.14645 8.20818 5.9193 8.39292C5.69205 8.5777 5.65755 8.91173 5.84237 9.13903C5.88259 9.18853 6.46338 9.89381 7.32639 10.5137C6.99803 10.6972 6.60564 10.7878 6.18231 10.7733C5.60017 10.7529 4.86206 10.1121 4.5 9.75C3.46481 8.71486 3.65228 7.07549 3.71143 6.19911C4.58837 6.13996 6.29134 6.17061 7.32639 7.20566C7.6885 7.56772 8.26521 8.08785 8.28569 8.66995C8.29938 9.06131 8.2226 9.42609 8.06571 9.73861ZM10.1758 4.65852C10.1758 3.19269 11.3952 1.79267 12.0554 1.21615C12.85 1.90643 13.8995 3.29825 13.8995 4.65852C13.8995 5.57774 13.413 6.67565 12.3808 6.86507C12.5103 6.32788 12.6362 5.74461 12.6362 4.65852C12.6362 4.36559 12.3987 4.12813 12.1058 4.12813C11.8129 4.12813 11.5754 4.36559 11.5754 4.65852C11.5754 5.68672 11.4539 6.18702 11.3253 6.71676C11.3232 6.7251 11.3212 6.73344 11.3192 6.74183C10.4993 6.39065 10.1758 5.45253 10.1758 4.65852ZM15.9959 20.6533L16.2163 20.6055C15.9234 20.6055 15.686 20.843 15.686 21.1359C15.686 21.4288 15.9234 21.6663 16.2163 21.6663L15.9255 21.5795L15.821 22.5H7.89452L7.73693 21.5914L7.465 21.6663C7.75792 21.6663 7.99539 21.4288 7.99539 21.1359C7.99539 20.843 7.75792 20.6055 7.465 20.6055L7.61665 20.6275L7.22328 16.5H16.3822L15.9959 20.6533ZM16.5 15.2486H7.22328L7.06722 14.25H16.6142L16.5 15.2486Z" fill="black"/>
<path id="Vector_2" d="M9.89587 21.6663H10.6252C10.9181 21.6663 11.1555 21.4288 11.1555 21.1359C11.1555 20.8429 10.9181 20.6055 10.6252 20.6055H9.89587C9.60295 20.6055 9.36548 20.8429 9.36548 21.1359C9.36548 21.4288 9.60295 21.6663 9.89587 21.6663Z" fill="black"/>
<path id="Vector_3" d="M13.0563 21.6663H13.7856C14.0785 21.6663 14.3159 21.4288 14.3159 21.1359C14.3159 20.8429 14.0784 20.6055 13.7856 20.6055H13.0563C12.7633 20.6055 12.5259 20.8429 12.5259 21.1359C12.5259 21.4288 12.7633 21.6663 13.0563 21.6663Z" fill="black"/>
</g>
</g>
</g>
</g>
<defs>
<clipPath id="clip0_864_26526">
<rect width="24" height="24" fill="white"/>
</clipPath>
</defs>
</svg>
