<svg width="19" height="20" viewBox="0 0 19 20" fill="none" xmlns="http://www.w3.org/2000/svg">
<g id="icon" clip-path="url(#clip0_1335_62)">
<g id="Rectangle 2">
<path d="M0 0.311523H6.87273C9.4032 0.311523 11.4545 2.36287 11.4545 4.89334V4.89334C11.4545 7.42381 9.4032 9.47516 6.87273 9.47516H5.25C2.3505 9.47516 0 7.12465 0 4.22516V0.311523Z" fill="#FFCC6F"/>
<path d="M0 0.311523H6.87273C9.4032 0.311523 11.4545 2.36287 11.4545 4.89334V4.89334C11.4545 7.42381 9.4032 9.47516 6.87273 9.47516H5.25C2.3505 9.47516 0 7.12465 0 4.22516V0.311523Z" fill="black"/>
</g>
<g id="Rectangle 3">
<path d="M0 10.5254H13.7932C16.3237 10.5254 18.375 12.5767 18.375 15.1072V15.1072C18.375 17.6377 16.3237 19.689 13.7932 19.689H5.25C2.3505 19.689 0 17.3385 0 14.439V10.5254Z" fill="#FFA500"/>
<path d="M0 10.5254H13.7932C16.3237 10.5254 18.375 12.5767 18.375 15.1072V15.1072C18.375 17.6377 16.3237 19.689 13.7932 19.689H5.25C2.3505 19.689 0 17.3385 0 14.439V10.5254Z" fill="black"/>
</g>
</g>
<defs>
<clipPath id="clip0_1335_62">
<rect width="18.375" height="19.3773" fill="white" transform="translate(0 0.311523)"/>
</clipPath>
</defs>
</svg>
