<svg width="26" height="26" viewBox="0 0 26 26" fill="none" xmlns="http://www.w3.org/2000/svg">
<g id="icon">
<path id="Vector" d="M6.10206 12.4427C6.02505 13.9057 6.11358 15.463 4.80648 16.4433C4.19813 16.8996 3.84009 17.6156 3.84009 18.3762C3.84009 19.4222 4.65941 20.3121 5.72649 20.3121H20.8177C21.8848 20.3121 22.7041 19.4222 22.7041 18.3762C22.7041 17.6156 22.3461 16.8996 21.7377 16.4433C20.4306 15.463 20.5191 13.9057 20.4421 12.4427C20.2414 8.62927 17.0908 5.64014 13.2721 5.64014C9.45335 5.64014 6.30276 8.62926 6.10206 12.4427Z" stroke="black" stroke-width="2.096" stroke-linecap="round" stroke-linejoin="round"/>
<path id="Vector_2" d="M11.7001 3.67509C11.7001 4.54329 12.4039 5.64009 13.2721 5.64009C14.1402 5.64009 14.8441 4.54329 14.8441 3.67509C14.8441 2.8069 14.1402 2.49609 13.2721 2.49609C12.4039 2.49609 11.7001 2.8069 11.7001 3.67509Z" stroke="black" stroke-width="2.096"/>
<path id="Vector_3" d="M16.4161 20.312C16.4161 22.0484 15.0085 23.456 13.2721 23.456C11.5356 23.456 10.1281 22.0484 10.1281 20.312" stroke="black" stroke-width="2.096" stroke-linecap="round" stroke-linejoin="round"/>
</g>
</svg>
