<svg width="375" height="158" viewBox="0 0 375 158" fill="none" xmlns="http://www.w3.org/2000/svg">
<path d="M30.5 26.2501C30.5 40.7476 18.7475 52.5001 4.25 52.5001C-10.2475 52.5001 -22 40.7476 -22 26.2501C-22 11.7526 -10.2475 9.76563e-05 4.25 9.76563e-05C18.7475 9.76563e-05 30.5 11.7526 30.5 26.2501Z" fill="#FF8A00"/>
<path d="M83 26.25C83 40.7475 71.2475 52.5 56.75 52.5C42.2525 52.5 30.5 40.7476 30.5 26.2501C30.5 11.7526 42.2525 0 56.75 0C71.2475 0 83 11.7525 83 26.25Z" fill="#FF8A00"/>
<path d="M135.5 26.25C135.5 40.7475 123.747 52.5 109.25 52.5C94.7525 52.5 83 40.7475 83 26.25C83 11.7525 94.7525 0 109.25 0C123.747 0 135.5 11.7525 135.5 26.25Z" fill="#FF8A00"/>
<path d="M188 26.25C188 40.7475 176.247 52.5 161.75 52.5C147.253 52.5 135.5 40.7475 135.5 26.25C135.5 11.7525 147.253 0 161.75 0C176.247 0 188 11.7525 188 26.25Z" fill="#FF8A00"/>
<path d="M240.5 26.25C240.5 40.7475 228.747 52.5 214.25 52.5C199.753 52.5 188 40.7475 188 26.25C188 11.7525 199.753 0 214.25 0C228.747 0 240.5 11.7525 240.5 26.25Z" fill="#FF8A00"/>
<path d="M293 26.25C293 40.7475 281.247 52.5 266.75 52.5C252.253 52.5 240.5 40.7475 240.5 26.25C240.5 11.7525 252.253 0 266.75 0C281.247 0 293 11.7525 293 26.25Z" fill="#FF8A00"/>
<path d="M345.5 26.25C345.5 40.7475 333.747 52.5 319.25 52.5C304.753 52.5 293 40.7475 293 26.25C293 11.7525 304.753 0 319.25 0C333.747 0 345.5 11.7525 345.5 26.25Z" fill="#FF8A00"/>
<path d="M398 26.25C398 40.7475 386.247 52.5 371.75 52.5C357.253 52.5 345.5 40.7475 345.5 26.25C345.5 11.7525 357.253 0 371.75 0C386.247 0 398 11.7525 398 26.25Z" fill="#FF8A00"/>
<path d="M30.5 78.75C30.5 93.2475 18.7475 105 4.25 105C-10.2475 105 -22 93.2475 -22 78.75C-22 64.2525 -10.2475 52.5001 4.25 52.5001C18.7475 52.5001 30.5 64.2525 30.5 78.75Z" fill="#FF8A00"/>
<path d="M83 78.7499C83 93.2474 71.2475 105 56.75 105C42.2525 105 30.5 93.2475 30.5 78.75C30.5 64.2525 42.2525 52.5 56.75 52.5C71.2475 52.5 83 64.2524 83 78.7499Z" fill="#FF8A00"/>
<path d="M135.5 78.7499C135.5 93.2474 123.747 105 109.25 105C94.7525 105 83 93.2474 83 78.7499C83 64.2524 94.7525 52.5 109.25 52.5C123.747 52.5 135.5 64.2524 135.5 78.7499Z" fill="#FF8A00"/>
<path d="M188 78.7499C188 93.2474 176.247 105 161.75 105C147.253 105 135.5 93.2474 135.5 78.7499C135.5 64.2524 147.253 52.5 161.75 52.5C176.247 52.5 188 64.2524 188 78.7499Z" fill="#FF8A00"/>
<path d="M240.5 78.7499C240.5 93.2474 228.747 105 214.25 105C199.753 105 188 93.2474 188 78.7499C188 64.2524 199.753 52.5 214.25 52.5C228.747 52.5 240.5 64.2524 240.5 78.7499Z" fill="#FF8A00"/>
<path d="M293 78.7499C293 93.2474 281.247 105 266.75 105C252.253 105 240.5 93.2474 240.5 78.7499C240.5 64.2524 252.253 52.5 266.75 52.5C281.247 52.5 293 64.2524 293 78.7499Z" fill="#FF8A00"/>
<path d="M345.5 78.7499C345.5 93.2474 333.747 105 319.25 105C304.753 105 293 93.2474 293 78.7499C293 64.2524 304.753 52.5 319.25 52.5C333.747 52.5 345.5 64.2524 345.5 78.7499Z" fill="#FF8A00"/>
<path d="M398 78.7499C398 93.2474 386.247 105 371.75 105C357.253 105 345.5 93.2474 345.5 78.7499C345.5 64.2524 357.253 52.5 371.75 52.5C386.247 52.5 398 64.2524 398 78.7499Z" fill="#FF8A00"/>
<path d="M30.5 131.25C30.5 145.747 18.7475 157.5 4.25 157.5C-10.2475 157.5 -22 145.747 -22 131.25C-22 116.753 -10.2475 105 4.25 105C18.7475 105 30.5 116.753 30.5 131.25Z" fill="#FF8A00"/>
<path d="M83 131.25C83 145.747 71.2475 157.5 56.75 157.5C42.2525 157.5 30.5 145.747 30.5 131.25C30.5 116.753 42.2525 105 56.75 105C71.2475 105 83 116.752 83 131.25Z" fill="#FF8A00"/>
<path d="M135.5 131.25C135.5 145.747 123.747 157.5 109.25 157.5C94.7525 157.5 83 145.747 83 131.25C83 116.752 94.7525 105 109.25 105C123.747 105 135.5 116.752 135.5 131.25Z" fill="#FF8A00"/>
<path d="M188 131.25C188 145.747 176.247 157.5 161.75 157.5C147.253 157.5 135.5 145.747 135.5 131.25C135.5 116.752 147.253 105 161.75 105C176.247 105 188 116.752 188 131.25Z" fill="#FF8A00"/>
<path d="M240.5 131.25C240.5 145.747 228.747 157.5 214.25 157.5C199.753 157.5 188 145.747 188 131.25C188 116.752 199.753 105 214.25 105C228.747 105 240.5 116.752 240.5 131.25Z" fill="#FF8A00"/>
<path d="M293 131.25C293 145.747 281.247 157.5 266.75 157.5C252.253 157.5 240.5 145.747 240.5 131.25C240.5 116.752 252.253 105 266.75 105C281.247 105 293 116.752 293 131.25Z" fill="#FF8A00"/>
<path d="M345.5 131.25C345.5 145.747 333.747 157.5 319.25 157.5C304.753 157.5 293 145.747 293 131.25C293 116.752 304.753 105 319.25 105C333.747 105 345.5 116.752 345.5 131.25Z" fill="#FF8A00"/>
<path d="M398 131.25C398 145.747 386.247 157.5 371.75 157.5C357.253 157.5 345.5 145.747 345.5 131.25C345.5 116.752 357.253 105 371.75 105C386.247 105 398 116.752 398 131.25Z" fill="#FF8A00"/>
</svg>
