<?xml version="1.0" ?>
<!-- Uploaded to: SVG Repo, www.svgrepo.com, Generator: SVG Repo Mixer Tools -->
<svg width="800px" height="800px" viewBox="0 0 20 20" version="1.1" xmlns="http://www.w3.org/2000/svg">
<g id="layer1">
<path d="M 15.279297 0.18945312 L 15.039062 0.203125 L 14.800781 0.25585938 L 14.576172 0.34570312 L 14.367188 0.47070312 L 14.240234 0.578125 A 0.50005 0.50005 0 0 0 14.207031 0.60546875 L 14.181641 0.62890625 L 5.2695312 9.5410156 L 0.93554688 13.875 A 0.50005 0.50005 0 0 0 0.8046875 14.105469 C 0.8046875 14.105469 0.64800587 14.735199 0.77929688 15.59375 C 0.91058838 16.452301 1.3293816 17.58524 2.40625 18.662109 A 0.50005 0.50005 0 1 0 3.1132812 17.955078 C 2.1901496 17.031947 1.8717867 16.124808 1.7675781 15.443359 C 1.6728761 14.824079 1.7577975 14.518068 1.7734375 14.451172 L 5.2695312 10.957031 L 5.2695312 10.955078 L 9.2324219 6.9941406 L 9.6894531 7.4511719 L 9.8613281 7.6035156 L 10.050781 7.7363281 L 10.253906 7.8476562 L 13.308594 8.875 L 13.263672 9.0136719 L 12.441406 9.2890625 A 0.50005 0.50005 0 0 0 12.125 9.6054688 L 11.849609 10.427734 L 11.027344 10.703125 A 0.50005 0.50005 0 0 0 10.710938 11.019531 L 10.435547 11.841797 L 9.6132812 12.117188 A 0.50005 0.50005 0 0 0 9.296875 12.433594 L 9.0214844 13.255859 L 8.1972656 13.53125 A 0.50005 0.50005 0 0 0 7.8828125 13.847656 L 7.6074219 14.669922 L 6.7832031 14.945312 A 0.50005 0.50005 0 0 0 6.4667969 15.261719 L 6.1933594 16.083984 L 5.3691406 16.359375 A 0.50005 0.50005 0 0 0 5.0527344 16.675781 L 4.7792969 17.5 L 3.9550781 17.773438 A 0.50005 0.50005 0 0 0 3.6386719 18.089844 L 3.2851562 19.150391 A 0.50028219 0.50028219 0 0 0 4.234375 19.466797 L 4.5097656 18.642578 L 5.3320312 18.369141 A 0.50005 0.50005 0 0 0 5.6484375 18.052734 L 5.9238281 17.228516 L 6.7460938 16.955078 A 0.50005 0.50005 0 0 0 7.0625 16.638672 L 7.3378906 15.814453 L 8.1601562 15.541016 A 0.50005 0.50005 0 0 0 8.4765625 15.224609 L 8.7519531 14.400391 L 9.5742188 14.126953 A 0.50005 0.50005 0 0 0 9.890625 13.810547 L 10.166016 12.986328 L 10.988281 12.710938 A 0.50005 0.50005 0 0 0 11.304688 12.396484 L 11.580078 11.572266 L 12.404297 11.296875 A 0.50005 0.50005 0 0 0 12.71875 10.980469 L 12.994141 10.158203 L 13.818359 9.8828125 A 0.50005 0.50005 0 0 0 14.134766 9.5664062 L 14.257812 9.1953125 L 14.556641 9.2949219 L 14.824219 9.3632812 L 15.099609 9.3945312 L 15.376953 9.390625 L 15.648438 9.3457031 L 15.912109 9.2617188 L 16.164062 9.1445312 L 16.394531 8.9941406 L 16.603516 8.8125 L 18.833984 6.5839844 L 18.990234 6.4003906 L 19.113281 6.1933594 L 19.205078 5.9707031 L 19.257812 5.7363281 L 19.273438 5.4960938 L 19.248047 5.2539062 L 19.1875 5.0234375 L 19.087891 4.8027344 L 18.957031 4.5996094 L 18.794922 4.4238281 L 18.605469 4.2753906 L 17.623047 3.6171875 L 17.412109 3.4589844 L 17.226562 3.2695312 L 17.064453 3.0605469 L 16.933594 2.8320312 L 16.835938 2.5859375 L 16.767578 2.3300781 L 16.734375 2.0683594 L 16.738281 1.8027344 L 16.736328 1.5605469 L 16.695312 1.3222656 L 16.617188 1.0917969 L 16.503906 0.87695312 L 16.355469 0.68359375 L 16.177734 0.515625 L 15.976562 0.38085938 L 15.755859 0.27929688 L 15.523438 0.21484375 L 15.279297 0.18945312 z M 15.253906 1.1894531 L 15.386719 1.2128906 L 15.511719 1.2675781 L 15.613281 1.3554688 L 15.689453 1.4667969 L 15.734375 1.5917969 L 15.740234 1.7265625 L 15.736328 2.078125 L 15.771484 2.4316406 L 15.845703 2.7753906 L 15.962891 3.109375 L 16.119141 3.4238281 L 16.306641 3.7207031 L 16.533203 3.9941406 L 16.787109 4.2382812 L 17.068359 4.4511719 L 18.052734 5.1054688 L 18.146484 5.1894531 L 18.21875 5.2910156 L 18.261719 5.4101562 L 18.273438 5.5371094 L 18.253906 5.6621094 L 18.205078 5.7773438 L 18.126953 5.875 L 15.898438 8.1054688 L 15.755859 8.2226562 L 15.595703 8.3125 L 15.419922 8.3710938 L 15.238281 8.3964844 L 15.054688 8.3886719 L 14.875 8.3476562 L 10.787109 6.984375 L 10.642578 6.9238281 L 10.513672 6.84375 L 10.396484 6.7421875 L 9.9394531 6.2871094 L 14.888672 1.3359375 L 14.996094 1.2539062 L 15.121094 1.2050781 L 15.253906 1.1894531 z M 14.146484 3.90625 L 13.951172 3.9257812 L 13.763672 3.9824219 L 13.589844 4.0742188 L 13.439453 4.1992188 L 12.621094 5.015625 L 12.494141 5.1738281 L 12.400391 5.3535156 L 12.345703 5.5507812 L 12.330078 5.7519531 L 12.355469 5.953125 L 12.421875 6.1445312 L 12.527344 6.3203125 L 12.664062 6.4707031 L 12.828125 6.5878906 L 13.011719 6.671875 L 14.603516 7.203125 L 14.783203 7.2460938 L 14.966797 7.2539062 L 15.150391 7.2285156 L 15.324219 7.1679688 L 15.486328 7.078125 L 15.626953 6.9628906 L 16.126953 6.4628906 L 16.25 6.3105469 L 16.34375 6.1386719 L 16.398438 5.9492188 L 16.419922 5.7558594 L 16.398438 5.5605469 L 16.34375 5.3710938 L 16.25 5.1992188 L 16.125 5.046875 L 15.972656 4.921875 L 14.701172 4.0761719 L 14.529297 3.9824219 L 14.339844 3.9257812 L 14.146484 3.90625 z M 14.146484 4.90625 L 15.419922 5.7558594 L 14.919922 6.2539062 L 13.330078 5.7226562 L 14.146484 4.90625 z " style="fill:#222222; fill-opacity:1; stroke:none; stroke-width:0px;"/>
</g>
</svg>