<svg width="24" height="24" viewBox="0 0 24 24" fill="none" xmlns="http://www.w3.org/2000/svg">
<g id="tools-svgrepo-com 1" clip-path="url(#clip0_864_26523)">
<g id="Group">
<path id="Vector" d="M20.238 16.9668L17.3187 16.2689L14.0645 13.0147L16.5717 10.5107C17.154 10.715 17.7593 10.8149 18.3617 10.8149C19.7711 10.8148 21.1633 10.268 22.1987 9.23457C23.8018 7.63443 24.2362 5.18121 23.2798 3.13015L22.8363 2.17911L20.1974 4.81195L18.9719 3.58872L21.6116 0.955198L20.6563 0.511243C18.6028 -0.442975 16.1465 -0.00936907 14.5441 1.59008C13.0663 3.06526 12.5817 5.26566 13.2644 7.2074L12.2781 8.19252L5.00896 0.924055C4.46608 0.379361 3.74311 0.078912 2.97316 0.0780292H2.96987C2.20006 0.0780292 1.47645 0.3774 0.931905 0.921357C0.386771 1.46649 0.0868119 2.19098 0.0872043 2.96143C0.0875966 3.73129 0.387801 4.45514 0.932396 4.9994L8.19934 12.266L7.21084 13.2533C5.26611 12.5707 3.06178 13.0541 1.58376 14.5294C-0.0192726 16.1296 -0.453762 18.5827 0.502713 20.6338L0.946178 21.5848L3.58509 18.952L4.81053 20.1752L2.17083 22.8088L3.12623 23.2527C3.85278 23.5903 4.62955 23.7541 5.40132 23.7541C6.81078 23.7541 8.20297 23.2074 9.23835 22.1739C10.7162 20.6987 11.2008 18.4983 10.5181 16.5565L13.0234 14.0544L16.2783 17.3093L16.9762 20.2286L20.7382 23.9906L24 20.7288L20.238 16.9668ZM14.7964 7.07218C14.1009 5.58028 14.4173 3.79564 15.5836 2.63141C16.4801 1.73653 17.7433 1.3426 18.9592 1.52299L16.889 3.58842L20.1971 6.89052L22.2688 4.82367C22.4501 6.03694 22.0558 7.29828 21.1593 8.19315C19.9919 9.35841 18.2024 9.67416 16.7063 8.97885L16.2402 8.76222L14.5431 10.4572L13.3185 9.23276L15.0141 7.53929L14.7964 7.07218ZM1.55855 2.96065C1.55836 2.58349 1.7053 2.22875 1.972 1.96199C2.23846 1.69587 2.59276 1.54933 2.96992 1.54933C3.3481 1.54977 3.70157 1.69656 3.96774 1.96356L13.502 11.4969L11.5053 13.491L1.97264 3.95881C1.70583 3.69215 1.55875 3.33765 1.55855 2.96065ZM8.1989 21.1325C7.30235 22.0274 6.03905 22.4213 4.82328 22.241L6.89352 20.1756L3.58538 16.8734L1.51373 18.9403C1.33236 17.7271 1.72673 16.4657 2.62327 15.5708C3.79059 14.4056 5.58009 14.0898 7.07616 14.785L7.54233 15.0017L9.23973 13.3064L10.4642 14.5309L8.76836 16.2246L8.98612 16.6918C9.68162 18.1837 9.36523 19.9683 8.1989 21.1325ZM18.3105 19.4822L17.9396 17.9301L19.4916 18.3011L21.9193 20.7288L20.7382 21.9098L18.3105 19.4822Z" fill="black"/>
</g>
</g>
<defs>
<clipPath id="clip0_864_26523">
<rect width="24" height="24" fill="white"/>
</clipPath>
</defs>
</svg>
