<svg width="375" height="194" viewBox="0 0 375 194" fill="none" xmlns="http://www.w3.org/2000/svg">
<g clip-path="url(#clip0_1304_716)">
<path d="M19.125 10.8334C19.125 23.9962 8.35185 34.6668 -4.9375 34.6668C-18.2269 34.6668 -29 23.9962 -29 10.8334C-29 -2.32936 -18.2269 -12.9999 -4.9375 -12.9999C8.35185 -12.9999 19.125 -2.32936 19.125 10.8334Z" fill="#FFE3C8"/>
<path d="M67.25 10.8333C67.25 23.9961 56.4769 34.6667 43.1875 34.6667C29.8981 34.6667 19.125 23.9962 19.125 10.8334C19.125 -2.32936 29.8981 -13 43.1875 -13C56.4769 -13 67.25 -2.32945 67.25 10.8333Z" fill="#FFE3C8"/>
<path d="M115.375 10.8333C115.375 23.9961 104.602 34.6667 91.3125 34.6667C78.0231 34.6667 67.25 23.9961 67.25 10.8333C67.25 -2.32945 78.0231 -13 91.3125 -13C104.602 -13 115.375 -2.32945 115.375 10.8333Z" fill="#FFE3C8"/>
<path d="M163.5 10.8333C163.5 23.9961 152.727 34.6667 139.438 34.6667C126.148 34.6667 115.375 23.9961 115.375 10.8333C115.375 -2.32945 126.148 -13 139.438 -13C152.727 -13 163.5 -2.32945 163.5 10.8333Z" fill="#FFE3C8"/>
<path d="M211.625 10.8333C211.625 23.9961 200.852 34.6667 187.562 34.6667C174.273 34.6667 163.5 23.9961 163.5 10.8333C163.5 -2.32945 174.273 -13 187.562 -13C200.852 -13 211.625 -2.32945 211.625 10.8333Z" fill="#FFE3C8"/>
<path d="M259.75 10.8333C259.75 23.9961 248.977 34.6667 235.688 34.6667C222.398 34.6667 211.625 23.9961 211.625 10.8333C211.625 -2.32945 222.398 -13 235.688 -13C248.977 -13 259.75 -2.32945 259.75 10.8333Z" fill="#FFE3C8"/>
<path d="M307.875 10.8333C307.875 23.9961 297.102 34.6667 283.812 34.6667C270.523 34.6667 259.75 23.9961 259.75 10.8333C259.75 -2.32945 270.523 -13 283.812 -13C297.102 -13 307.875 -2.32945 307.875 10.8333Z" fill="#FFE3C8"/>
<path d="M356 10.8333C356 23.9961 345.227 34.6667 331.938 34.6667C318.648 34.6667 307.875 23.9961 307.875 10.8333C307.875 -2.32945 318.648 -13 331.938 -13C345.227 -13 356 -2.32945 356 10.8333Z" fill="#FFE3C8"/>
<path d="M19.125 58.5C19.125 71.6628 8.35185 82.3333 -4.9375 82.3333C-18.2269 82.3333 -29 71.6628 -29 58.5C-29 45.3372 -18.2269 34.6668 -4.9375 34.6668C8.35185 34.6668 19.125 45.3372 19.125 58.5Z" fill="#FFE3C8"/>
<path d="M67.25 58.4999C67.25 71.6627 56.4769 82.3332 43.1875 82.3332C29.8981 82.3332 19.125 71.6628 19.125 58.5C19.125 45.3372 29.8981 34.6667 43.1875 34.6667C56.4769 34.6667 67.25 45.3371 67.25 58.4999Z" fill="#FFE3C8"/>
<path d="M115.375 58.4999C115.375 71.6627 104.602 82.3332 91.3125 82.3332C78.0231 82.3332 67.25 71.6627 67.25 58.4999C67.25 45.3371 78.0231 34.6667 91.3125 34.6667C104.602 34.6667 115.375 45.3371 115.375 58.4999Z" fill="#FFE3C8"/>
<path d="M163.5 58.4999C163.5 71.6627 152.727 82.3332 139.438 82.3332C126.148 82.3332 115.375 71.6627 115.375 58.4999C115.375 45.3371 126.148 34.6667 139.438 34.6667C152.727 34.6667 163.5 45.3371 163.5 58.4999Z" fill="#FFE3C8"/>
<path d="M211.625 58.4999C211.625 71.6627 200.852 82.3332 187.562 82.3332C174.273 82.3332 163.5 71.6627 163.5 58.4999C163.5 45.3371 174.273 34.6667 187.562 34.6667C200.852 34.6667 211.625 45.3371 211.625 58.4999Z" fill="#FFE3C8"/>
<path d="M259.75 58.4999C259.75 71.6627 248.977 82.3332 235.688 82.3332C222.398 82.3332 211.625 71.6627 211.625 58.4999C211.625 45.3371 222.398 34.6667 235.688 34.6667C248.977 34.6667 259.75 45.3371 259.75 58.4999Z" fill="#FFE3C8"/>
<path d="M307.875 58.4999C307.875 71.6627 297.102 82.3332 283.812 82.3332C270.523 82.3332 259.75 71.6627 259.75 58.4999C259.75 45.3371 270.523 34.6667 283.812 34.6667C297.102 34.6667 307.875 45.3371 307.875 58.4999Z" fill="#FFE3C8"/>
<path d="M356 58.4999C356 71.6627 345.227 82.3332 331.938 82.3332C318.648 82.3332 307.875 71.6627 307.875 58.4999C307.875 45.3371 318.648 34.6667 331.938 34.6667C345.227 34.6667 356 45.3371 356 58.4999Z" fill="#FFE3C8"/>
<path d="M19.125 106.167C19.125 119.329 8.35185 130 -4.9375 130C-18.2269 130 -29 119.329 -29 106.167C-29 93.0039 -18.2269 82.3333 -4.9375 82.3333C8.35185 82.3333 19.125 93.0039 19.125 106.167Z" fill="#FFE3C8"/>
<path d="M67.25 106.167C67.25 119.329 56.4769 130 43.1875 130C29.8981 130 19.125 119.329 19.125 106.167C19.125 93.0039 29.8981 82.3332 43.1875 82.3332C56.4769 82.3332 67.25 93.0038 67.25 106.167Z" fill="#FFE3C8"/>
<path d="M115.375 106.167C115.375 119.329 104.602 130 91.3125 130C78.0231 130 67.25 119.329 67.25 106.167C67.25 93.0038 78.0231 82.3332 91.3125 82.3332C104.602 82.3332 115.375 93.0038 115.375 106.167Z" fill="#FFE3C8"/>
<path d="M163.5 106.167C163.5 119.329 152.727 130 139.438 130C126.148 130 115.375 119.329 115.375 106.167C115.375 93.0038 126.148 82.3332 139.438 82.3332C152.727 82.3332 163.5 93.0038 163.5 106.167Z" fill="#FFE3C8"/>
<path d="M211.625 106.167C211.625 119.329 200.852 130 187.562 130C174.273 130 163.5 119.329 163.5 106.167C163.5 93.0038 174.273 82.3332 187.562 82.3332C200.852 82.3332 211.625 93.0038 211.625 106.167Z" fill="#FFE3C8"/>
<path d="M259.75 106.167C259.75 119.329 248.977 130 235.688 130C222.398 130 211.625 119.329 211.625 106.167C211.625 93.0038 222.398 82.3332 235.688 82.3332C248.977 82.3332 259.75 93.0038 259.75 106.167Z" fill="#FFE3C8"/>
<path d="M307.875 106.167C307.875 119.329 297.102 130 283.812 130C270.523 130 259.75 119.329 259.75 106.167C259.75 93.0038 270.523 82.3332 283.812 82.3332C297.102 82.3332 307.875 93.0038 307.875 106.167Z" fill="#FFE3C8"/>
<path d="M356 106.167C356 119.329 345.227 130 331.938 130C318.648 130 307.875 119.329 307.875 106.167C307.875 93.0038 318.648 82.3332 331.938 82.3332C345.227 82.3332 356 93.0038 356 106.167Z" fill="#FFE3C8"/>
<path d="M404.125 10.8333C404.125 23.9961 393.352 34.6667 380.062 34.6667C366.773 34.6667 356 23.9961 356 10.8333C356 -2.32945 366.773 -13 380.062 -13C393.352 -13 404.125 -2.32945 404.125 10.8333Z" fill="#FFE3C8"/>
<path d="M404.125 58.4999C404.125 71.6627 393.352 82.3332 380.062 82.3332C366.773 82.3332 356 71.6627 356 58.4999C356 45.3371 366.773 34.6667 380.062 34.6667C393.352 34.6667 404.125 45.3371 404.125 58.4999Z" fill="#FFE3C8"/>
<path d="M404.125 106.167C404.125 119.329 393.352 130 380.062 130C366.773 130 356 119.329 356 106.167C356 93.0038 366.773 82.3332 380.062 82.3332C393.352 82.3332 404.125 93.0038 404.125 106.167Z" fill="#FFE3C8"/>
</g>
<defs>
<clipPath id="clip0_1304_716">
<rect width="375" height="194" fill="white"/>
</clipPath>
</defs>
</svg>
